<?xml version="1.0" encoding="utf-8"?>
<!-- Generator: Adobe Illustrator 26.0.2, SVG Export Plug-In . SVG Version: 6.00 Build 0)  -->
<svg version="1.1" xmlns="http://www.w3.org/2000/svg" xmlns:xlink="http://www.w3.org/1999/xlink" x="0px" y="0px"
	 viewBox="0 0 235 94" style="enable-background:new 0 0 235 94;" xml:space="preserve">
<style type="text/css">
	.st0{fill:#FFFFFF;}
	.st1{font-family:'Roboto-Bold';}
	.st2{font-size:26.2399px;}
	.st3{font-family:'Roboto-Light';}
	.st4{font-size:11.48px;}
</style>
<g id="Layer_2">
</g>
<g id="Layer_1">
	<g>
		<g>
			<g>
				<g>
					<polygon class="st0" points="66.17,62.26 62.35,62.26 62.35,61.86 66.03,61.86 74.19,56.61 74.19,37.04 65.23,31.17 
						62.35,31.17 62.35,30.76 65.37,30.76 74.63,36.83 74.63,56.83 					"/>
				</g>
				<g>
					<path class="st0" d="M42.25,78.64l-0.13-0.08L21.93,65.32V27.4l20.32-13.02L62.57,27.4v37.92l-0.09,0.06L42.25,78.64z
						 M22.37,65.11l19.88,13.04l19.88-13.04V27.62L42.25,14.88L22.37,27.62V65.11z"/>
				</g>
				<g>
					<polygon class="st0" points="22.15,62.26 18.33,62.26 9.87,56.83 9.87,36.83 19.14,30.76 22.15,30.76 22.15,31.17 19.28,31.17 
						10.31,37.04 10.31,56.61 18.47,61.86 22.15,61.86 					"/>
				</g>
				<g>
					<polygon class="st0" points="48.54,30.96 42.29,29 42.29,21.54 48.54,24.43 					"/>
				</g>
				<g>
					<polygon class="st0" points="62.13,42.19 57.64,41.61 57.64,33.99 62.13,34.97 					"/>
				</g>
				<g>
					<polygon class="st0" points="62.13,59.16 57.64,60.45 57.64,52.44 62.13,51.93 					"/>
				</g>
				<g>
					<polygon class="st0" points="48.01,62.65 42.29,64.34 42.29,71.64 48.01,68.64 					"/>
				</g>
				<g>
					<polygon class="st0" points="48.11,44.16 42.29,43.76 42.29,51.89 48.11,51.5 					"/>
				</g>
				<g>
					<polygon class="st0" points="32.42,30.89 38.67,28.93 38.67,21.46 32.42,24.35 					"/>
				</g>
				<g>
					<polygon class="st0" points="23.64,41.83 28.13,41.25 28.13,33.62 23.64,34.6 					"/>
				</g>
				<g>
					<polygon class="st0" points="23.64,53.37 28.13,54.67 28.13,46.66 23.64,46.72 					"/>
				</g>
				<g>
					<polygon class="st0" points="32.96,62.57 38.67,64.26 38.67,71.56 32.96,68.57 					"/>
				</g>
				<g>
					<polygon class="st0" points="32.86,41.1 38.67,40.7 38.67,48.83 32.86,48.43 					"/>
				</g>
				<g>
					<rect x="42.03" y="14.63" class="st0" width="0.44" height="63.76"/>
				</g>
			</g>
			<g>
				<rect x="84.88" y="14.54" class="st0" width="0.44" height="64.23"/>
			</g>
		</g>
		<g>
			<text transform="matrix(1.0805 0 0 1 96.4417 48.5496)" class="st0 st1 st2">wansheng</text>
			<text transform="matrix(1.0805 0 0 1 96.4417 63.9451)" class="st0 st3 st4">make home home</text>
		</g>
	</g>
</g>
</svg>
